<svg xmlns="http://www.w3.org/2000/svg" width="309.09" height="35" viewBox="0 0 309.09 35"><rect class="svg__rect" x="0" y="0" width="87.46" height="35" fill="#FF6A00"/><rect class="svg__rect" x="85.46" y="0" width="223.63" height="35" fill="#000000"/><path class="svg__text" d="M13.95 18.19L13.95 18.19L13.95 17.39Q13.95 16.19 14.38 15.27Q14.80 14.35 15.60 13.85Q16.40 13.35 17.45 13.35L17.45 13.35Q18.86 13.35 19.73 14.12Q20.59 14.89 20.73 16.29L20.73 16.29L19.25 16.29Q19.14 15.37 18.71 14.96Q18.28 14.55 17.45 14.55L17.45 14.55Q16.48 14.55 15.97 15.26Q15.45 15.96 15.44 17.33L15.44 17.33L15.44 18.09Q15.44 19.47 15.93 20.20Q16.43 20.92 17.38 20.92L17.38 20.92Q18.25 20.92 18.69 20.53Q19.13 20.14 19.25 19.22L19.25 19.22L20.73 19.22Q20.60 20.59 19.72 21.35Q18.84 22.12 17.38 22.12L17.38 22.12Q16.36 22.12 15.59 21.63Q14.81 21.15 14.39 20.26Q13.97 19.37 13.95 18.19ZM24.77 18.00L24.77 18.00L24.77 17.52Q24.77 16.28 25.21 15.32Q25.65 14.37 26.46 13.86Q27.27 13.35 28.31 13.35Q29.35 13.35 30.16 13.85Q30.96 14.35 31.40 15.29Q31.84 16.23 31.85 17.48L31.85 17.48L31.85 17.96Q31.85 19.21 31.41 20.16Q30.98 21.10 30.18 21.61Q29.37 22.12 28.32 22.12L28.32 22.12Q27.28 22.12 26.47 21.61Q25.66 21.10 25.22 20.17Q24.78 19.23 24.77 18.00ZM26.25 17.46L26.25 17.96Q26.25 19.36 26.80 20.13Q27.35 20.90 28.32 20.90L28.32 20.90Q29.31 20.90 29.84 20.15Q30.37 19.40 30.37 17.96L30.37 17.96L30.37 17.51Q30.37 16.09 29.83 15.34Q29.29 14.58 28.31 14.58L28.31 14.58Q27.35 14.58 26.81 15.33Q26.26 16.09 26.25 17.46L26.25 17.46ZM36.18 19.16L36.18 19.16L36.18 13.47L37.65 13.47L37.65 19.18Q37.65 20.03 38.09 20.48Q38.52 20.93 39.37 20.93L39.37 20.93Q41.08 20.93 41.08 19.13L41.08 19.13L41.08 13.47L42.55 13.47L42.55 19.17Q42.55 20.53 41.68 21.32Q40.81 22.12 39.37 22.12L39.37 22.12Q37.90 22.12 37.04 21.33Q36.18 20.55 36.18 19.16ZM48.61 22L47.12 22L47.12 13.47L50.12 13.47Q51.60 13.47 52.40 14.13Q53.21 14.79 53.21 16.05L53.21 16.05Q53.21 16.90 52.79 17.48Q52.38 18.06 51.64 18.37L51.64 18.37L53.56 21.92L53.56 22L51.97 22L50.26 18.71L48.61 18.71L48.61 22ZM48.61 14.66L48.61 17.52L50.13 17.52Q50.88 17.52 51.30 17.15Q51.72 16.77 51.72 16.11L51.72 16.11Q51.72 15.43 51.33 15.05Q50.94 14.68 50.17 14.66L50.17 14.66L48.61 14.66ZM57.17 19.42L57.17 19.42L58.65 19.42Q58.65 20.15 59.13 20.55Q59.61 20.95 60.51 20.95L60.51 20.95Q61.28 20.95 61.67 20.63Q62.06 20.32 62.06 19.80L62.06 19.80Q62.06 19.24 61.66 18.94Q61.27 18.63 60.24 18.32Q59.21 18.01 58.60 17.63L58.60 17.63Q57.43 16.90 57.43 15.72L57.43 15.72Q57.43 14.69 58.27 14.02Q59.11 13.35 60.45 13.35L60.45 13.35Q61.34 13.35 62.04 13.68Q62.74 14.01 63.14 14.61Q63.54 15.22 63.54 15.96L63.54 15.96L62.06 15.96Q62.06 15.29 61.64 14.91Q61.22 14.54 60.44 14.54L60.44 14.54Q59.72 14.54 59.31 14.85Q58.91 15.16 58.91 15.71L58.91 15.71Q58.91 16.18 59.35 16.50Q59.78 16.81 60.78 17.10Q61.77 17.40 62.38 17.78Q62.98 18.16 63.26 18.65Q63.54 19.13 63.54 19.79L63.54 19.79Q63.54 20.86 62.72 21.49Q61.91 22.12 60.51 22.12L60.51 22.12Q59.58 22.12 58.80 21.77Q58.03 21.43 57.60 20.83Q57.17 20.22 57.17 19.42ZM73.41 22L67.83 22L67.83 13.47L73.37 13.47L73.37 14.66L69.31 14.66L69.31 17.02L72.82 17.02L72.82 18.19L69.31 18.19L69.31 20.82L73.41 20.82L73.41 22Z" fill="#000000"/><path class="svg__text" d="M100.44 15.44L98.88 15.44L98.88 13.60L102.82 13.60L102.82 22L100.44 22L100.44 15.44ZM107.56 17.80L107.56 17.80Q107.56 16.45 108.04 15.46Q108.51 14.46 109.35 13.95Q110.19 13.43 111.27 13.43L111.27 13.43Q112.33 13.43 113.17 13.95Q114.02 14.46 114.49 15.46Q114.96 16.45 114.96 17.80L114.96 17.80Q114.96 19.15 114.49 20.15Q114.02 21.14 113.18 21.65Q112.34 22.17 111.27 22.17L111.27 22.17Q110.19 22.17 109.35 21.65Q108.51 21.14 108.04 20.15Q107.56 19.16 107.56 17.80ZM109.95 17.80L109.95 17.80Q109.95 19.06 110.30 19.64Q110.66 20.22 111.27 20.22L111.27 20.22Q111.87 20.22 112.23 19.64Q112.58 19.06 112.58 17.80L112.58 17.80Q112.58 16.54 112.23 15.96Q111.87 15.38 111.27 15.38L111.27 15.38Q110.66 15.38 110.30 15.96Q109.95 16.54 109.95 17.80ZM119.27 17.80L119.27 17.80Q119.27 16.45 119.74 15.46Q120.21 14.46 121.05 13.95Q121.89 13.43 122.97 13.43L122.97 13.43Q124.03 13.43 124.88 13.95Q125.72 14.46 126.19 15.46Q126.67 16.45 126.67 17.80L126.67 17.80Q126.67 19.15 126.19 20.15Q125.72 21.14 124.88 21.65Q124.04 22.17 122.97 22.17L122.97 22.17Q121.89 22.17 121.05 21.65Q120.21 21.14 119.74 20.15Q119.27 19.16 119.27 17.80ZM121.65 17.80L121.65 17.80Q121.65 19.06 122.00 19.64Q122.36 20.22 122.97 20.22L122.97 20.22Q123.57 20.22 123.93 19.64Q124.28 19.06 124.28 17.80L124.28 17.80Q124.28 16.54 123.93 15.96Q123.57 15.38 122.97 15.38L122.97 15.38Q122.36 15.38 122.00 15.96Q121.65 16.54 121.65 17.80ZM142.34 22L138.37 22L138.37 13.60L142.34 13.60Q143.72 13.60 144.79 14.12Q145.85 14.63 146.44 15.58Q147.03 16.53 147.03 17.80L147.03 17.80Q147.03 19.07 146.44 20.02Q145.85 20.97 144.79 21.48Q143.72 22 142.34 22L142.34 22ZM140.75 15.50L140.75 20.10L142.25 20.10Q143.32 20.10 143.98 19.49Q144.63 18.88 144.63 17.80L144.63 17.80Q144.63 16.72 143.98 16.11Q143.32 15.50 142.25 15.50L142.25 15.50L140.75 15.50ZM153.18 22L150.75 22L154.46 13.60L156.81 13.60L160.52 22L158.05 22L157.39 20.37L153.84 20.37L153.18 22ZM155.62 15.93L154.53 18.61L156.69 18.61L155.62 15.93ZM166.80 18.95L163.60 13.60L166.10 13.60L168.10 16.94L170.09 13.60L172.39 13.60L169.18 18.99L169.18 22L166.80 22L166.80 18.95ZM175.89 21.24L175.89 21.24L176.67 19.49Q177.23 19.86 177.98 20.09Q178.72 20.32 179.44 20.32L179.44 20.32Q180.81 20.32 180.81 19.64L180.81 19.64Q180.81 19.28 180.42 19.11Q180.03 18.93 179.17 18.74L179.17 18.74Q178.22 18.53 177.58 18.30Q176.94 18.06 176.49 17.55Q176.04 17.03 176.04 16.16L176.04 16.16Q176.04 15.39 176.46 14.77Q176.87 14.15 177.71 13.79Q178.54 13.43 179.75 13.43L179.75 13.43Q180.58 13.43 181.38 13.62Q182.19 13.80 182.80 14.17L182.80 14.17L182.07 15.93Q180.87 15.28 179.74 15.28L179.74 15.28Q179.03 15.28 178.71 15.49Q178.39 15.70 178.39 16.04L178.39 16.04Q178.39 16.37 178.77 16.54Q179.15 16.71 180.00 16.89L180.00 16.89Q180.96 17.10 181.59 17.33Q182.22 17.56 182.69 18.07Q183.15 18.58 183.15 19.46L183.15 19.46Q183.15 20.21 182.73 20.83Q182.31 21.44 181.47 21.80Q180.63 22.17 179.43 22.17L179.43 22.17Q178.41 22.17 177.45 21.92Q176.49 21.67 175.89 21.24ZM194.27 17.80L194.27 17.80Q194.27 16.55 194.87 15.55Q195.48 14.56 196.54 14.00Q197.60 13.43 198.93 13.43L198.93 13.43Q200.27 13.43 201.33 14.00Q202.39 14.56 203.00 15.55Q203.60 16.55 203.60 17.80L203.60 17.80Q203.60 19.05 203.00 20.04Q202.39 21.04 201.33 21.60Q200.27 22.17 198.93 22.17L198.93 22.17Q197.60 22.17 196.54 21.60Q195.48 21.04 194.87 20.04Q194.27 19.05 194.27 17.80ZM196.67 17.80L196.67 17.80Q196.67 18.51 196.97 19.05Q197.27 19.60 197.79 19.90Q198.30 20.20 198.93 20.20L198.93 20.20Q199.57 20.20 200.09 19.90Q200.60 19.60 200.90 19.05Q201.20 18.51 201.20 17.80L201.20 17.80Q201.20 17.09 200.90 16.54Q200.60 16 200.09 15.70Q199.57 15.40 198.93 15.40L198.93 15.40Q198.30 15.40 197.78 15.70Q197.27 16 196.97 16.54Q196.67 17.09 196.67 17.80ZM210.71 22L208.33 22L208.33 13.60L214.93 13.60L214.93 15.44L210.71 15.44L210.71 17.28L214.42 17.28L214.42 19.12L210.71 19.12L210.71 22ZM228.87 22L226.49 22L226.49 13.60L230.34 13.60Q231.47 13.60 232.31 13.98Q233.15 14.35 233.61 15.06Q234.07 15.76 234.07 16.71L234.07 16.71Q234.07 17.66 233.61 18.35Q233.15 19.05 232.31 19.42Q231.47 19.80 230.34 19.80L230.34 19.80L228.87 19.80L228.87 22ZM228.87 15.47L228.87 17.93L230.19 17.93Q230.92 17.93 231.29 17.61Q231.67 17.29 231.67 16.71L231.67 16.71Q231.67 16.12 231.29 15.80Q230.92 15.47 230.19 15.47L230.19 15.47L228.87 15.47ZM240.95 18.95L237.74 13.60L240.25 13.60L242.24 16.94L244.23 13.60L246.54 13.60L243.32 18.99L243.32 22L240.95 22L240.95 18.95ZM252.41 15.48L249.83 15.48L249.83 13.60L257.35 13.60L257.35 15.48L254.79 15.48L254.79 22L252.41 22L252.41 15.48ZM264.10 22L261.72 22L261.72 13.60L264.10 13.60L264.10 16.76L267.34 16.76L267.34 13.60L269.72 13.60L269.72 22L267.34 22L267.34 18.72L264.10 18.72L264.10 22ZM274.45 17.80L274.45 17.80Q274.45 16.55 275.05 15.55Q275.66 14.56 276.72 14.00Q277.78 13.43 279.11 13.43L279.11 13.43Q280.44 13.43 281.51 14.00Q282.57 14.56 283.18 15.55Q283.78 16.55 283.78 17.80L283.78 17.80Q283.78 19.05 283.18 20.04Q282.57 21.04 281.51 21.60Q280.45 22.17 279.11 22.17L279.11 22.17Q277.78 22.17 276.72 21.60Q275.66 21.04 275.05 20.04Q274.45 19.05 274.45 17.80ZM276.85 17.80L276.85 17.80Q276.85 18.51 277.15 19.05Q277.45 19.60 277.97 19.90Q278.48 20.20 279.11 20.20L279.11 20.20Q279.75 20.20 280.27 19.90Q280.78 19.60 281.08 19.05Q281.38 18.51 281.38 17.80L281.38 17.80Q281.38 17.09 281.08 16.54Q280.78 16 280.27 15.70Q279.75 15.40 279.11 15.40L279.11 15.40Q278.48 15.40 277.96 15.70Q277.45 16 277.15 16.54Q276.85 17.09 276.85 17.80ZM290.85 22L288.51 22L288.51 13.60L290.47 13.60L294.18 18.07L294.18 13.60L296.51 13.60L296.51 22L294.55 22L290.85 17.52L290.85 22Z" fill="#FF6A00" x="98.46"/></svg>