<svg xmlns="http://www.w3.org/2000/svg" width="191.74" height="35" viewBox="0 0 191.74 35"><rect class="svg__rect" x="0" y="0" width="50.69" height="35" fill="#DEFF00"/><rect class="svg__rect" x="48.69" y="0" width="143.05" height="35" fill="#000000"/><path class="svg__text" d="M15.78 22L14.31 22L14.31 13.47L15.78 13.47L15.78 22ZM23.05 22L20.59 22L20.59 13.47L23.11 13.47Q24.24 13.47 25.12 13.97Q25.99 14.48 26.48 15.40Q26.96 16.33 26.96 17.52L26.96 17.52L26.96 17.95Q26.96 19.16 26.47 20.08Q25.99 21.00 25.10 21.50Q24.20 22 23.05 22L23.05 22ZM22.07 14.66L22.07 20.82L23.04 20.82Q24.21 20.82 24.83 20.09Q25.46 19.36 25.47 17.99L25.47 17.99L25.47 17.52Q25.47 16.13 24.86 15.40Q24.26 14.66 23.11 14.66L23.11 14.66L22.07 14.66ZM37.00 22L31.42 22L31.42 13.47L36.96 13.47L36.96 14.66L32.90 14.66L32.90 17.02L36.41 17.02L36.41 18.19L32.90 18.19L32.90 20.82L37.00 20.82L37.00 22Z" fill="#000000"/><path class="svg__text" d="M65.26 22L62.88 22L62.88 13.60L66.72 13.60Q67.86 13.60 68.70 13.98Q69.54 14.35 70.00 15.06Q70.45 15.76 70.45 16.71L70.45 16.71Q70.45 17.66 70.00 18.35Q69.54 19.05 68.70 19.42Q67.86 19.80 66.72 19.80L66.72 19.80L65.26 19.80L65.26 22ZM65.26 15.47L65.26 17.93L66.58 17.93Q67.31 17.93 67.68 17.61Q68.05 17.29 68.05 16.71L68.05 16.71Q68.05 16.12 67.68 15.80Q67.31 15.47 66.58 15.47L66.58 15.47L65.26 15.47ZM77.33 18.95L74.13 13.60L76.64 13.60L78.63 16.94L80.62 13.60L82.92 13.60L79.71 18.99L79.71 22L77.33 22L77.33 18.95ZM86.58 17.80L86.58 17.80Q86.58 16.54 87.18 15.54Q87.77 14.55 88.83 13.99Q89.88 13.43 91.20 13.43L91.20 13.43Q92.35 13.43 93.27 13.84Q94.20 14.25 94.81 15.02L94.81 15.02L93.30 16.39Q92.49 15.40 91.32 15.40L91.32 15.40Q90.63 15.40 90.10 15.70Q89.57 16 89.27 16.54Q88.98 17.09 88.98 17.80L88.98 17.80Q88.98 18.51 89.27 19.05Q89.57 19.60 90.10 19.90Q90.63 20.20 91.32 20.20L91.32 20.20Q92.49 20.20 93.30 19.22L93.30 19.22L94.81 20.58Q94.20 21.35 93.28 21.76Q92.35 22.17 91.20 22.17L91.20 22.17Q89.88 22.17 88.83 21.61Q87.77 21.05 87.18 20.05Q86.58 19.06 86.58 17.80ZM101.73 22L99.35 22L99.35 13.60L101.73 13.60L101.73 16.76L104.97 16.76L104.97 13.60L107.34 13.60L107.34 22L104.97 22L104.97 18.72L101.73 18.72L101.73 22ZM113.92 22L111.49 22L115.20 13.60L117.55 13.60L121.26 22L118.79 22L118.13 20.37L114.58 20.37L113.92 22ZM116.36 15.93L115.27 18.61L117.43 18.61L116.36 15.93ZM127.79 22L125.41 22L125.41 13.60L129.26 13.60Q130.40 13.60 131.24 13.98Q132.08 14.35 132.53 15.06Q132.99 15.76 132.99 16.71L132.99 16.71Q132.99 17.62 132.56 18.30Q132.14 18.98 131.34 19.36L131.34 19.36L133.16 22L130.61 22L129.09 19.77L127.79 19.77L127.79 22ZM127.79 15.47L127.79 17.93L129.11 17.93Q129.84 17.93 130.22 17.61Q130.59 17.29 130.59 16.71L130.59 16.71Q130.59 16.12 130.22 15.79Q129.84 15.47 129.11 15.47L129.11 15.47L127.79 15.47ZM139.98 22L137.78 22L137.78 13.60L139.74 13.60L142.69 18.45L145.57 13.60L147.52 13.60L147.55 22L145.37 22L145.34 17.55L143.18 21.17L142.13 21.17L139.98 17.67L139.98 22ZM155.95 19.46L152.44 19.46L152.44 17.71L155.95 17.71L155.95 19.46ZM160.42 17.80L160.42 17.80Q160.42 16.54 161.02 15.54Q161.61 14.55 162.67 13.99Q163.72 13.43 165.04 13.43L165.04 13.43Q166.19 13.43 167.11 13.84Q168.04 14.25 168.65 15.02L168.65 15.02L167.14 16.39Q166.33 15.40 165.16 15.40L165.16 15.40Q164.47 15.40 163.94 15.70Q163.41 16 163.11 16.54Q162.82 17.09 162.82 17.80L162.82 17.80Q162.82 18.51 163.11 19.05Q163.41 19.60 163.94 19.90Q164.47 20.20 165.16 20.20L165.16 20.20Q166.33 20.20 167.14 19.22L167.14 19.22L168.65 20.58Q168.04 21.35 167.12 21.76Q166.19 22.17 165.04 22.17L165.04 22.17Q163.72 22.17 162.67 21.61Q161.61 21.05 161.02 20.05Q160.42 19.06 160.42 17.80ZM179.93 22L173.19 22L173.19 13.60L179.78 13.60L179.78 15.44L175.54 15.44L175.54 16.85L179.27 16.85L179.27 18.63L175.54 18.63L175.54 20.17L179.93 20.17L179.93 22Z" fill="#DEFF00" x="61.69"/></svg>