<svg xmlns="http://www.w3.org/2000/svg" width="214.85" height="35" viewBox="0 0 214.85 35"><rect class="svg__rect" x="0" y="0" width="109.64" height="35" fill="#008BFF"/><rect class="svg__rect" x="107.64" y="0" width="107.21" height="35" fill="#000000"/><path class="svg__text" d="M19.57 22L14.22 22L14.22 13.47L15.70 13.47L15.70 20.82L19.57 20.82L19.57 22ZM24.48 22L22.94 22L26.16 13.47L27.49 13.47L30.72 22L29.17 22L28.47 20.01L25.17 20.01L24.48 22ZM26.82 15.28L25.58 18.82L28.06 18.82L26.82 15.28ZM36.15 22L34.67 22L34.67 13.47L36.15 13.47L39.97 19.54L39.97 13.47L41.44 13.47L41.44 22L39.96 22L36.15 15.95L36.15 22ZM45.93 18.13L45.93 18.13L45.93 17.46Q45.93 15.53 46.86 14.44Q47.79 13.35 49.44 13.35L49.44 13.35Q50.87 13.35 51.71 14.05Q52.54 14.76 52.71 16.08L52.71 16.08L51.26 16.08Q51.01 14.54 49.47 14.54L49.47 14.54Q48.48 14.54 47.96 15.26Q47.44 15.98 47.42 17.37L47.42 17.37L47.42 18.02Q47.42 19.40 48.01 20.17Q48.59 20.93 49.63 20.93L49.63 20.93Q50.76 20.93 51.24 20.42L51.24 20.42L51.24 18.75L49.48 18.75L49.48 17.62L52.72 17.62L52.72 20.89Q52.26 21.50 51.44 21.81Q50.62 22.12 49.57 22.12L49.57 22.12Q48.50 22.12 47.67 21.63Q46.85 21.14 46.40 20.24Q45.95 19.33 45.93 18.13ZM57.20 19.16L57.20 19.16L57.20 13.47L58.68 13.47L58.68 19.18Q58.68 20.03 59.11 20.48Q59.55 20.93 60.39 20.93L60.39 20.93Q62.10 20.93 62.10 19.13L62.10 19.13L62.10 13.47L63.58 13.47L63.58 19.17Q63.58 20.53 62.71 21.32Q61.84 22.12 60.39 22.12L60.39 22.12Q58.92 22.12 58.06 21.33Q57.20 20.55 57.20 19.16ZM68.93 22L67.39 22L70.61 13.47L71.94 13.47L75.17 22L73.62 22L72.92 20.01L69.62 20.01L68.93 22ZM71.27 15.28L70.03 18.82L72.51 18.82L71.27 15.28ZM78.88 18.13L78.88 18.13L78.88 17.46Q78.88 15.53 79.80 14.44Q80.73 13.35 82.39 13.35L82.39 13.35Q83.81 13.35 84.65 14.05Q85.48 14.76 85.65 16.08L85.65 16.08L84.20 16.08Q83.96 14.54 82.41 14.54L82.41 14.54Q81.42 14.54 80.90 15.26Q80.38 15.98 80.36 17.37L80.36 17.37L80.36 18.02Q80.36 19.40 80.95 20.17Q81.53 20.93 82.57 20.93L82.57 20.93Q83.70 20.93 84.18 20.42L84.18 20.42L84.18 18.75L82.43 18.75L82.43 17.62L85.66 17.62L85.66 20.89Q85.20 21.50 84.38 21.81Q83.56 22.12 82.51 22.12L82.51 22.12Q81.44 22.12 80.62 21.63Q79.79 21.14 79.34 20.24Q78.89 19.33 78.88 18.13ZM95.86 22L90.28 22L90.28 13.47L95.81 13.47L95.81 14.66L91.76 14.66L91.76 17.02L95.26 17.02L95.26 18.19L91.76 18.19L91.76 20.82L95.86 20.82L95.86 22Z" fill="#000000"/><path class="svg__text" d="M124.21 22L121.83 22L121.83 13.60L125.67 13.60Q126.81 13.60 127.65 13.98Q128.49 14.35 128.95 15.06Q129.40 15.76 129.40 16.71L129.40 16.71Q129.40 17.66 128.95 18.35Q128.49 19.05 127.65 19.42Q126.81 19.80 125.67 19.80L125.67 19.80L124.21 19.80L124.21 22ZM124.21 15.47L124.21 17.93L125.53 17.93Q126.26 17.93 126.63 17.61Q127.00 17.29 127.00 16.71L127.00 16.71Q127.00 16.12 126.63 15.80Q126.26 15.47 125.53 15.47L125.53 15.47L124.21 15.47ZM136.28 18.95L133.08 13.60L135.59 13.60L137.58 16.94L139.57 13.60L141.87 13.60L138.66 18.99L138.66 22L136.28 22L136.28 18.95ZM147.75 15.48L145.17 15.48L145.17 13.60L152.69 13.60L152.69 15.48L150.12 15.48L150.12 22L147.75 22L147.75 15.48ZM159.44 22L157.06 22L157.06 13.60L159.44 13.60L159.44 16.76L162.68 16.76L162.68 13.60L165.05 13.60L165.05 22L162.68 22L162.68 18.72L159.44 18.72L159.44 22ZM169.79 17.80L169.79 17.80Q169.79 16.55 170.39 15.55Q170.99 14.56 172.06 14.00Q173.12 13.43 174.45 13.43L174.45 13.43Q175.78 13.43 176.84 14.00Q177.91 14.56 178.51 15.55Q179.12 16.55 179.12 17.80L179.12 17.80Q179.12 19.05 178.51 20.04Q177.91 21.04 176.85 21.60Q175.79 22.17 174.45 22.17L174.45 22.17Q173.12 22.17 172.06 21.60Q170.99 21.04 170.39 20.04Q169.79 19.05 169.79 17.80ZM172.18 17.80L172.18 17.80Q172.18 18.51 172.49 19.05Q172.79 19.60 173.30 19.90Q173.82 20.20 174.45 20.20L174.45 20.20Q175.09 20.20 175.61 19.90Q176.12 19.60 176.42 19.05Q176.72 18.51 176.72 17.80L176.72 17.80Q176.72 17.09 176.42 16.54Q176.12 16 175.61 15.70Q175.09 15.40 174.45 15.40L174.45 15.40Q173.81 15.40 173.30 15.70Q172.79 16 172.49 16.54Q172.18 17.09 172.18 17.80ZM186.18 22L183.85 22L183.85 13.60L185.81 13.60L189.52 18.07L189.52 13.60L191.84 13.60L191.84 22L189.89 22L186.18 17.52L186.18 22ZM196.12 21.34L196.12 21.34L196.98 19.55Q197.47 19.88 198.09 20.07Q198.71 20.25 199.31 20.25L199.31 20.25Q199.92 20.25 200.28 20.02Q200.64 19.79 200.64 19.37L200.64 19.37Q200.64 18.55 199.36 18.55L199.36 18.55L198.36 18.55L198.36 17.05L199.86 15.44L196.55 15.44L196.55 13.60L202.62 13.60L202.62 15.09L200.88 16.96Q201.93 17.18 202.49 17.82Q203.04 18.46 203.04 19.37L203.04 19.37Q203.04 20.11 202.64 20.75Q202.24 21.39 201.42 21.78Q200.60 22.17 199.38 22.17L199.38 22.17Q198.49 22.17 197.62 21.95Q196.75 21.74 196.12 21.34Z" fill="#008BFF" x="120.64"/></svg>